<?xml version="1.0" encoding="UTF-8" standalone="no"?>
<!DOCTYPE svg PUBLIC "-//W3C//DTD SVG 1.1//EN" "http://www.w3.org/Graphics/SVG/1.1/DTD/svg11.dtd">
<svg width="100%" height="100%" viewBox="0 0 1680 4830" version="1.1" xmlns="http://www.w3.org/2000/svg" xmlns:xlink="http://www.w3.org/1999/xlink" xml:space="preserve" xmlns:serif="http://www.serif.com/" style="fill-rule:evenodd;clip-rule:evenodd;stroke-linejoin:round;stroke-miterlimit:1.41421;">
  <style type="text/css" media="screen">
      <![CDATA[
      g {
          fill: black;
          stroke-width: 1;
      }
      .europeCurves{
        stroke: red !important;
        stroke-width: 0.5 !important;
      }
      #text{
        fill: black;
        stroke: none;
      }
      ]]>
  </style>

    <g id="svgSouthCoordinates">
        <g id="theStrokes">
            <g id="g3762">
                <path id="path3770" d="M344.759,4229.38L1440.6,4229.38" style="fill-rule:nonzero;stroke:black;stroke-width:1px;"/>
                <path id="path3774" d="M344.759,3625.47L1440.6,3625.47" style="fill-rule:nonzero;stroke:black;stroke-width:1px;"/>
                <path id="path3778" d="M344.759,3021.56L1440.6,3021.56" style="fill-rule:nonzero;stroke:black;stroke-width:1px;"/>
                <path id="path3782" d="M344.759,2417.65L1440.6,2417.65" style="fill-rule:nonzero;stroke:black;stroke-width:1px;"/>
                <path id="path3786" d="M344.759,1813.74L1440.6,1813.74" style="fill-rule:nonzero;stroke:black;stroke-width:1px;"/>
                <path id="path3790" d="M344.759,1209.82L1440.6,1209.82" style="fill-rule:nonzero;stroke:black;stroke-width:1px;"/>
                <path id="path3794" d="M344.759,605.913L1440.6,605.913" style="fill-rule:nonzero;stroke:black;stroke-width:1px;"/>
            </g>
        </g>
        <g transform="matrix(1,0,0,1,-1.93972,570.135)">
            <path d="M240.914,644.397C241.214,646.537 242.714,648.457 246.214,648.457C249.614,648.457 251.274,646.697 251.274,644.457C251.274,642.657 250.574,641.117 246.614,640.157C244.174,639.557 243.394,639.037 243.394,637.737C243.394,636.417 244.334,635.657 246.034,635.657C248.074,635.657 248.834,636.677 249.094,637.897L250.974,637.897C250.774,636.077 249.414,634.157 246.094,634.157C242.994,634.157 241.474,635.837 241.474,637.917C241.474,639.877 242.614,640.997 245.894,641.797C248.674,642.457 249.354,643.237 249.354,644.637C249.354,645.957 248.494,646.977 246.334,646.977C244.314,646.977 243.174,646.077 242.794,644.397L240.914,644.397Z" style="fill-rule:nonzero;"/>
            <path d="M266.894,648.277L267.154,646.737L260.254,646.737C260.574,645.717 261.534,644.677 263.354,643.277C265.794,641.397 266.634,640.617 266.634,638.617C266.634,636.777 265.494,634.877 262.534,634.877C259.854,634.877 258.434,636.557 258.194,638.797L259.914,638.797C260.194,637.177 260.934,636.357 262.534,636.357C264.114,636.357 264.814,637.337 264.814,638.657C264.814,640.117 264.254,640.637 262.134,642.237C259.414,644.297 258.174,646.257 258.174,648.177L258.174,648.277L266.894,648.277Z" style="fill-rule:nonzero;"/>
            <path d="M273.534,634.877C269.974,634.877 268.874,638.317 268.874,641.697C268.874,645.097 269.874,648.517 273.474,648.517C277.154,648.517 278.074,644.857 278.074,641.597C278.074,638.237 277.074,634.877 273.534,634.877ZM273.554,636.377C275.794,636.377 276.234,639.077 276.234,641.617C276.234,644.337 275.814,647.017 273.494,647.017C271.174,647.017 270.734,644.197 270.734,641.697C270.734,638.797 271.254,636.377 273.554,636.377Z" style="fill-rule:nonzero;"/>
            <path d="M282.414,634.577C280.874,634.577 279.714,635.737 279.714,637.337C279.714,638.877 280.794,639.997 282.374,639.997C283.854,639.997 285.114,638.937 285.114,637.237C285.114,635.817 284.094,634.577 282.414,634.577ZM282.394,635.537C283.494,635.537 283.994,636.457 283.994,637.277C283.994,638.297 283.374,639.017 282.394,639.017C281.454,639.017 280.834,638.277 280.834,637.297C280.834,636.337 281.374,635.537 282.394,635.537Z" style="fill-rule:nonzero;"/>
        </g>
        <g transform="matrix(1,0,0,1,-1.93972,-34.1412)">
            <path d="M240.914,644.397C241.214,646.537 242.714,648.457 246.214,648.457C249.614,648.457 251.274,646.697 251.274,644.457C251.274,642.657 250.574,641.117 246.614,640.157C244.174,639.557 243.394,639.037 243.394,637.737C243.394,636.417 244.334,635.657 246.034,635.657C248.074,635.657 248.834,636.677 249.094,637.897L250.974,637.897C250.774,636.077 249.414,634.157 246.094,634.157C242.994,634.157 241.474,635.837 241.474,637.917C241.474,639.877 242.614,640.997 245.894,641.797C248.674,642.457 249.354,643.237 249.354,644.637C249.354,645.957 248.494,646.977 246.334,646.977C244.314,646.977 243.174,646.077 242.794,644.397L240.914,644.397Z" style="fill-rule:nonzero;"/>
            <path d="M262.594,648.277L262.594,635.057L261.274,635.057C260.374,635.917 259.094,636.657 258.074,636.937L258.074,638.357C258.814,638.217 260.154,637.677 260.794,637.217L260.794,648.277L262.594,648.277Z" style="fill-rule:nonzero;"/>
            <path d="M270.254,634.877C266.694,634.877 265.594,638.317 265.594,641.697C265.594,645.097 266.594,648.517 270.194,648.517C273.874,648.517 274.794,644.857 274.794,641.597C274.794,638.237 273.794,634.877 270.254,634.877ZM270.274,636.377C272.514,636.377 272.954,639.077 272.954,641.617C272.954,644.337 272.534,647.017 270.214,647.017C267.894,647.017 267.454,644.197 267.454,641.697C267.454,638.797 267.974,636.377 270.274,636.377Z" style="fill-rule:nonzero;"/>
            <path d="M279.134,634.577C277.594,634.577 276.434,635.737 276.434,637.337C276.434,638.877 277.514,639.997 279.094,639.997C280.574,639.997 281.834,638.937 281.834,637.237C281.834,635.817 280.814,634.577 279.134,634.577ZM279.114,635.537C280.214,635.537 280.714,636.457 280.714,637.277C280.714,638.297 280.094,639.017 279.114,639.017C278.174,639.017 277.554,638.277 277.554,637.297C277.554,636.337 278.094,635.537 279.114,635.537Z" style="fill-rule:nonzero;"/>
        </g>
        <g transform="matrix(1,0,0,1,-1.93972,1172.91)">
            <path d="M240.914,644.397C241.214,646.537 242.714,648.457 246.214,648.457C249.614,648.457 251.274,646.697 251.274,644.457C251.274,642.657 250.574,641.117 246.614,640.157C244.174,639.557 243.394,639.037 243.394,637.737C243.394,636.417 244.334,635.657 246.034,635.657C248.074,635.657 248.834,636.677 249.094,637.897L250.974,637.897C250.774,636.077 249.414,634.157 246.094,634.157C242.994,634.157 241.474,635.837 241.474,637.917C241.474,639.877 242.614,640.997 245.894,641.797C248.674,642.457 249.354,643.237 249.354,644.637C249.354,645.957 248.494,646.977 246.334,646.977C244.314,646.977 243.174,646.077 242.794,644.397L240.914,644.397Z" style="fill-rule:nonzero;"/>
            <path d="M260.234,638.257C260.494,637.197 261.074,636.357 262.654,636.357C264.114,636.357 264.894,637.157 264.894,638.357C264.894,639.737 264.154,640.397 262.414,640.397L261.634,640.397L261.634,641.837L262.574,641.837C264.354,641.837 265.434,642.637 265.434,644.397C265.434,645.817 264.634,647.057 262.754,647.057C261.054,647.057 260.174,646.037 259.914,644.877L258.174,644.877C258.374,646.617 259.654,648.517 262.674,648.517C265.934,648.517 267.234,646.477 267.234,644.377C267.234,642.417 266.114,641.437 264.934,641.057L264.934,641.017C265.734,640.717 266.674,639.897 266.674,638.297C266.674,636.537 265.434,634.877 262.714,634.877C259.894,634.877 258.754,636.637 258.534,638.257L260.234,638.257Z" style="fill-rule:nonzero;"/>
            <path d="M273.914,634.877C270.354,634.877 269.254,638.317 269.254,641.697C269.254,645.097 270.254,648.517 273.854,648.517C277.534,648.517 278.454,644.857 278.454,641.597C278.454,638.237 277.454,634.877 273.914,634.877ZM273.934,636.377C276.174,636.377 276.614,639.077 276.614,641.617C276.614,644.337 276.194,647.017 273.874,647.017C271.554,647.017 271.114,644.197 271.114,641.697C271.114,638.797 271.634,636.377 273.934,636.377Z" style="fill-rule:nonzero;"/>
            <path d="M282.794,634.577C281.254,634.577 280.094,635.737 280.094,637.337C280.094,638.877 281.174,639.997 282.754,639.997C284.234,639.997 285.494,638.937 285.494,637.237C285.494,635.817 284.474,634.577 282.794,634.577ZM282.774,635.537C283.874,635.537 284.374,636.457 284.374,637.277C284.374,638.297 283.754,639.017 282.774,639.017C281.834,639.017 281.214,638.277 281.214,637.297C281.214,636.337 281.754,635.537 282.774,635.537Z" style="fill-rule:nonzero;"/>
        </g>
        <g transform="matrix(1,0,0,1,-1.93972,1777.87)">
            <path d="M240.914,644.397C241.214,646.537 242.714,648.457 246.214,648.457C249.614,648.457 251.274,646.697 251.274,644.457C251.274,642.657 250.574,641.117 246.614,640.157C244.174,639.557 243.394,639.037 243.394,637.737C243.394,636.417 244.334,635.657 246.034,635.657C248.074,635.657 248.834,636.677 249.094,637.897L250.974,637.897C250.774,636.077 249.414,634.157 246.094,634.157C242.994,634.157 241.474,635.837 241.474,637.917C241.474,639.877 242.614,640.997 245.894,641.797C248.674,642.457 249.354,643.237 249.354,644.637C249.354,645.957 248.494,646.977 246.334,646.977C244.314,646.977 243.174,646.077 242.794,644.397L240.914,644.397Z" style="fill-rule:nonzero;"/>
            <path d="M265.854,648.277L265.854,644.897L267.374,644.897L267.554,643.377L265.854,643.377L265.854,635.117L263.974,635.117L257.994,643.297L257.994,644.897L264.174,644.897L264.174,648.277L265.854,648.277ZM264.174,643.377L259.714,643.377C261.134,641.417 263.694,637.897 264.214,636.877C264.194,637.737 264.174,639.037 264.174,640.057L264.174,643.377Z" style="fill-rule:nonzero;"/>
            <path d="M273.894,634.877C270.334,634.877 269.234,638.317 269.234,641.697C269.234,645.097 270.234,648.517 273.834,648.517C277.514,648.517 278.434,644.857 278.434,641.597C278.434,638.237 277.434,634.877 273.894,634.877ZM273.914,636.377C276.154,636.377 276.594,639.077 276.594,641.617C276.594,644.337 276.174,647.017 273.854,647.017C271.534,647.017 271.094,644.197 271.094,641.697C271.094,638.797 271.614,636.377 273.914,636.377Z" style="fill-rule:nonzero;"/>
            <path d="M282.774,634.577C281.234,634.577 280.074,635.737 280.074,637.337C280.074,638.877 281.154,639.997 282.734,639.997C284.214,639.997 285.474,638.937 285.474,637.237C285.474,635.817 284.454,634.577 282.774,634.577ZM282.754,635.537C283.854,635.537 284.354,636.457 284.354,637.277C284.354,638.297 283.734,639.017 282.754,639.017C281.814,639.017 281.194,638.277 281.194,637.297C281.194,636.337 281.734,635.537 282.754,635.537Z" style="fill-rule:nonzero;"/>
        </g>
        <g transform="matrix(1,0,0,1,-1.93972,2381.48)">
            <path d="M240.914,644.397C241.214,646.537 242.714,648.457 246.214,648.457C249.614,648.457 251.274,646.697 251.274,644.457C251.274,642.657 250.574,641.117 246.614,640.157C244.174,639.557 243.394,639.037 243.394,637.737C243.394,636.417 244.334,635.657 246.034,635.657C248.074,635.657 248.834,636.677 249.094,637.897L250.974,637.897C250.774,636.077 249.414,634.157 246.094,634.157C242.994,634.157 241.474,635.837 241.474,637.917C241.474,639.877 242.614,640.997 245.894,641.797C248.674,642.457 249.354,643.237 249.354,644.637C249.354,645.957 248.494,646.977 246.334,646.977C244.314,646.977 243.174,646.077 242.794,644.397L240.914,644.397Z" style="fill-rule:nonzero;"/>
            <path d="M266.874,635.117L259.654,635.117C259.474,636.777 258.974,640.537 258.574,642.257L260.214,642.557C260.674,641.497 261.334,640.837 262.914,640.837C264.754,640.837 265.454,642.137 265.454,643.837C265.454,645.777 264.574,647.057 262.774,647.057C261.274,647.057 260.414,646.177 260.114,644.977L258.334,644.977C258.674,647.217 260.374,648.517 262.714,648.517C265.914,648.517 267.254,646.277 267.254,643.717C267.254,641.017 265.694,639.337 263.294,639.337C261.954,639.337 261.094,639.777 260.534,640.397C260.674,639.697 260.994,637.697 261.114,636.637L266.614,636.637L266.874,635.117Z" style="fill-rule:nonzero;"/>
            <path d="M273.934,634.877C270.374,634.877 269.274,638.317 269.274,641.697C269.274,645.097 270.274,648.517 273.874,648.517C277.554,648.517 278.474,644.857 278.474,641.597C278.474,638.237 277.474,634.877 273.934,634.877ZM273.954,636.377C276.194,636.377 276.634,639.077 276.634,641.617C276.634,644.337 276.214,647.017 273.894,647.017C271.574,647.017 271.134,644.197 271.134,641.697C271.134,638.797 271.654,636.377 273.954,636.377Z" style="fill-rule:nonzero;"/>
            <path d="M282.814,634.577C281.274,634.577 280.114,635.737 280.114,637.337C280.114,638.877 281.194,639.997 282.774,639.997C284.254,639.997 285.514,638.937 285.514,637.237C285.514,635.817 284.494,634.577 282.814,634.577ZM282.794,635.537C283.894,635.537 284.394,636.457 284.394,637.277C284.394,638.297 283.774,639.017 282.794,639.017C281.854,639.017 281.234,638.277 281.234,637.297C281.234,636.337 281.774,635.537 282.794,635.537Z" style="fill-rule:nonzero;"/>
        </g>
        <g transform="matrix(1,0,0,1,-1.93972,2985.3)">
            <path d="M240.914,644.397C241.214,646.537 242.714,648.457 246.214,648.457C249.614,648.457 251.274,646.697 251.274,644.457C251.274,642.657 250.574,641.117 246.614,640.157C244.174,639.557 243.394,639.037 243.394,637.737C243.394,636.417 244.334,635.657 246.034,635.657C248.074,635.657 248.834,636.677 249.094,637.897L250.974,637.897C250.774,636.077 249.414,634.157 246.094,634.157C242.994,634.157 241.474,635.837 241.474,637.917C241.474,639.877 242.614,640.997 245.894,641.797C248.674,642.457 249.354,643.237 249.354,644.637C249.354,645.957 248.494,646.977 246.334,646.977C244.314,646.977 243.174,646.077 242.794,644.397L240.914,644.397Z" style="fill-rule:nonzero;"/>
            <path d="M266.974,637.977C266.814,636.617 265.774,634.877 263.094,634.877C259.434,634.877 258.254,638.237 258.254,641.877C258.254,645.577 259.314,648.517 262.954,648.517C265.854,648.517 267.394,646.317 267.394,643.717C267.394,641.197 265.894,639.337 263.354,639.337C261.534,639.337 260.554,640.237 260.014,641.177C260.074,638.397 260.794,636.317 263.014,636.317C264.354,636.317 264.974,637.037 265.234,637.977L266.974,637.977ZM262.934,647.037C260.754,647.037 260.214,644.917 260.214,643.837C260.214,641.857 261.354,640.817 262.994,640.817C265.014,640.817 265.574,642.377 265.574,643.857C265.574,645.497 264.834,647.037 262.934,647.037Z" style="fill-rule:nonzero;"/>
            <path d="M274.014,634.877C270.454,634.877 269.354,638.317 269.354,641.697C269.354,645.097 270.354,648.517 273.954,648.517C277.634,648.517 278.554,644.857 278.554,641.597C278.554,638.237 277.554,634.877 274.014,634.877ZM274.034,636.377C276.274,636.377 276.714,639.077 276.714,641.617C276.714,644.337 276.294,647.017 273.974,647.017C271.654,647.017 271.214,644.197 271.214,641.697C271.214,638.797 271.734,636.377 274.034,636.377Z" style="fill-rule:nonzero;"/>
            <path d="M282.894,634.577C281.354,634.577 280.194,635.737 280.194,637.337C280.194,638.877 281.274,639.997 282.854,639.997C284.334,639.997 285.594,638.937 285.594,637.237C285.594,635.817 284.574,634.577 282.894,634.577ZM282.874,635.537C283.974,635.537 284.474,636.457 284.474,637.277C284.474,638.297 283.854,639.017 282.874,639.017C281.934,639.017 281.314,638.277 281.314,637.297C281.314,636.337 281.854,635.537 282.874,635.537Z" style="fill-rule:nonzero;"/>
        </g>
        <g transform="matrix(1,0,0,1,-1.93972,3588.82)">
            <path d="M240.914,644.397C241.214,646.537 242.714,648.457 246.214,648.457C249.614,648.457 251.274,646.697 251.274,644.457C251.274,642.657 250.574,641.117 246.614,640.157C244.174,639.557 243.394,639.037 243.394,637.737C243.394,636.417 244.334,635.657 246.034,635.657C248.074,635.657 248.834,636.677 249.094,637.897L250.974,637.897C250.774,636.077 249.414,634.157 246.094,634.157C242.994,634.157 241.474,635.837 241.474,637.917C241.474,639.877 242.614,640.997 245.894,641.797C248.674,642.457 249.354,643.237 249.354,644.637C249.354,645.957 248.494,646.977 246.334,646.977C244.314,646.977 243.174,646.077 242.794,644.397L240.914,644.397Z" style="fill-rule:nonzero;"/>
            <path d="M257.694,635.117L257.694,636.657L264.474,636.657C262.354,639.457 260.014,644.537 259.414,648.277L261.234,648.277C261.894,644.397 264.034,639.637 266.334,636.557L266.334,635.117L257.694,635.117Z" style="fill-rule:nonzero;"/>
            <path d="M272.514,634.877C268.954,634.877 267.854,638.317 267.854,641.697C267.854,645.097 268.854,648.517 272.454,648.517C276.134,648.517 277.054,644.857 277.054,641.597C277.054,638.237 276.054,634.877 272.514,634.877ZM272.534,636.377C274.774,636.377 275.214,639.077 275.214,641.617C275.214,644.337 274.794,647.017 272.474,647.017C270.154,647.017 269.714,644.197 269.714,641.697C269.714,638.797 270.234,636.377 272.534,636.377Z" style="fill-rule:nonzero;"/>
            <path d="M281.394,634.577C279.854,634.577 278.694,635.737 278.694,637.337C278.694,638.877 279.774,639.997 281.354,639.997C282.834,639.997 284.094,638.937 284.094,637.237C284.094,635.817 283.074,634.577 281.394,634.577ZM281.374,635.537C282.474,635.537 282.974,636.457 282.974,637.277C282.974,638.297 282.354,639.017 281.374,639.017C280.434,639.017 279.814,638.277 279.814,637.297C279.814,636.337 280.354,635.537 281.374,635.537Z" style="fill-rule:nonzero;"/>
        </g>
    </g>
</svg>
