<?xml version="1.0" encoding="UTF-8" standalone="no"?>
<!DOCTYPE svg PUBLIC "-//W3C//DTD SVG 1.1//EN" "http://www.w3.org/Graphics/SVG/1.1/DTD/svg11.dtd">
<svg width="100%" height="100%" viewBox="0 0 1440 64" version="1.1" xmlns="http://www.w3.org/2000/svg" xmlns:xlink="http://www.w3.org/1999/xlink" xml:space="preserve" xmlns:serif="http://www.serif.com/" style="fill-rule:evenodd;clip-rule:evenodd;stroke-miterlimit:10;">
    <g transform="matrix(0.982579,0,0,0.326255,13.4571,3.64482)">
        <rect x="-13.696" y="-11.172" width="1465.53" height="195.954" style="fill:white;"/>
    </g>
    <g transform="matrix(0.982579,0,0,0.326255,13.4571,3.64482)">
        <rect x="-13.696" y="-11.172" width="1465.53" height="195.954" style="fill:white;"/>
    </g>
    <g transform="matrix(1,0,0,1,97.1479,-8.09715)">
        <path d="M174.023,57.262L177.103,42.786L176.025,42.786C175.255,43.512 173.781,44.238 172.307,44.502L172.021,45.734C172.813,45.646 174.573,45.162 175.299,44.722L172.615,57.262L174.023,57.262Z" style="fill-rule:nonzero;"/>
        <path d="M185.155,57.262L185.969,53.324L187.641,53.324L188.081,52.114L186.233,52.114L188.235,42.786L186.607,42.786L178.247,51.982L177.939,53.324L184.561,53.324L183.747,57.262L185.155,57.262ZM184.847,52.114L179.743,52.114C181.679,49.914 185.881,45.36 186.651,44.26C186.431,45.008 186.013,46.724 185.815,47.648L184.847,52.114Z" style="fill-rule:nonzero;"/>
        <path d="M196.507,42.566C191.865,42.566 190.193,49.012 190.193,52.708C190.193,55.678 191.403,57.482 193.933,57.482C198.729,57.482 200.203,50.904 200.203,47.098C200.203,44.7 199.279,42.566 196.507,42.566ZM196.309,43.82C198.179,43.82 198.751,45.184 198.751,47.164C198.751,50.266 197.475,56.228 194.131,56.228C192.371,56.228 191.645,54.864 191.645,52.686C191.645,49.628 192.987,43.82 196.309,43.82Z" style="fill-rule:nonzero;"/>
        <path d="M208.365,42.566C203.723,42.566 202.051,49.012 202.051,52.708C202.051,55.678 203.261,57.482 205.791,57.482C210.587,57.482 212.061,50.904 212.061,47.098C212.061,44.7 211.137,42.566 208.365,42.566ZM208.167,43.82C210.037,43.82 210.609,45.184 210.609,47.164C210.609,50.266 209.333,56.228 205.989,56.228C204.229,56.228 203.503,54.864 203.503,52.686C203.503,49.628 204.845,43.82 208.167,43.82Z" style="fill-rule:nonzero;"/>
    </g>
    <g transform="matrix(1,0,0,1,270.198,-8.09715)">
        <path d="M174.023,57.262L177.103,42.786L176.025,42.786C175.255,43.512 173.781,44.238 172.307,44.502L172.021,45.734C172.813,45.646 174.573,45.162 175.299,44.722L172.615,57.262L174.023,57.262Z" style="fill-rule:nonzero;"/>
        <path d="M188.961,42.786L181.459,42.786C180.711,45.514 179.699,48.924 179.237,50.266L180.425,50.772C181.151,49.804 181.943,48.946 183.747,48.946C185.617,48.946 186.431,50.156 186.431,51.85C186.431,53.962 185.243,56.228 182.581,56.228C180.755,56.228 179.831,55.128 179.655,53.566L178.247,53.566C178.401,56.096 180.051,57.482 182.493,57.482C186.101,57.482 187.905,54.688 187.905,51.718C187.905,49.21 186.365,47.67 184.143,47.67C182.669,47.67 181.789,48.132 180.997,48.858C181.305,48 182.009,45.536 182.405,44.04L188.499,44.04L188.961,42.786Z" style="fill-rule:nonzero;"/>
        <path d="M196.529,42.566C191.887,42.566 190.215,49.012 190.215,52.708C190.215,55.678 191.425,57.482 193.955,57.482C198.751,57.482 200.225,50.904 200.225,47.098C200.225,44.7 199.301,42.566 196.529,42.566ZM196.331,43.82C198.201,43.82 198.773,45.184 198.773,47.164C198.773,50.266 197.497,56.228 194.153,56.228C192.393,56.228 191.667,54.864 191.667,52.686C191.667,49.628 193.009,43.82 196.331,43.82Z" style="fill-rule:nonzero;"/>
        <path d="M208.387,42.566C203.745,42.566 202.073,49.012 202.073,52.708C202.073,55.678 203.283,57.482 205.813,57.482C210.609,57.482 212.083,50.904 212.083,47.098C212.083,44.7 211.159,42.566 208.387,42.566ZM208.189,43.82C210.059,43.82 210.631,45.184 210.631,47.164C210.631,50.266 209.355,56.228 206.011,56.228C204.251,56.228 203.525,54.864 203.525,52.686C203.525,49.628 204.867,43.82 208.189,43.82Z" style="fill-rule:nonzero;"/>
    </g>
    <g transform="matrix(1,0,0,1,442.644,-8.09715)">
        <path d="M174.023,57.262L177.103,42.786L176.025,42.786C175.255,43.512 173.781,44.238 172.307,44.502L172.021,45.734C172.813,45.646 174.573,45.162 175.299,44.722L172.615,57.262L174.023,57.262Z" style="fill-rule:nonzero;"/>
        <path d="M189.005,45.822C188.917,44.436 188.125,42.522 185.221,42.522C180.513,42.522 178.885,48.77 178.885,52.422C178.885,55.436 180.293,57.482 183.153,57.482C186.343,57.482 188.235,54.842 188.235,51.894C188.235,49.452 186.893,47.692 184.363,47.692C182.493,47.692 181.261,48.638 180.601,49.496C181.195,46.702 182.449,43.776 185.133,43.776C186.871,43.776 187.487,44.788 187.597,45.822L189.005,45.822ZM183.241,56.228C181.085,56.228 180.293,54.38 180.293,52.752C180.293,50.53 181.811,48.968 184.033,48.968C186.189,48.968 186.761,50.552 186.761,51.938C186.761,54.226 185.529,56.228 183.241,56.228Z" style="fill-rule:nonzero;"/>
        <path d="M196.903,42.566C192.261,42.566 190.589,49.012 190.589,52.708C190.589,55.678 191.799,57.482 194.329,57.482C199.125,57.482 200.599,50.904 200.599,47.098C200.599,44.7 199.675,42.566 196.903,42.566ZM196.705,43.82C198.575,43.82 199.147,45.184 199.147,47.164C199.147,50.266 197.871,56.228 194.527,56.228C192.767,56.228 192.041,54.864 192.041,52.686C192.041,49.628 193.383,43.82 196.705,43.82Z" style="fill-rule:nonzero;"/>
        <path d="M208.761,42.566C204.119,42.566 202.447,49.012 202.447,52.708C202.447,55.678 203.657,57.482 206.187,57.482C210.983,57.482 212.457,50.904 212.457,47.098C212.457,44.7 211.533,42.566 208.761,42.566ZM208.563,43.82C210.433,43.82 211.005,45.184 211.005,47.164C211.005,50.266 209.729,56.228 206.385,56.228C204.625,56.228 203.899,54.864 203.899,52.686C203.899,49.628 205.241,43.82 208.563,43.82Z" style="fill-rule:nonzero;"/>
    </g>
    <g transform="matrix(1,0,0,1,614.704,-8.09715)">
        <path d="M174.023,57.262L177.103,42.786L176.025,42.786C175.255,43.512 173.781,44.238 172.307,44.502L172.021,45.734C172.813,45.646 174.573,45.162 175.299,44.722L172.615,57.262L174.023,57.262Z" style="fill-rule:nonzero;"/>
        <path d="M179.853,42.786L179.589,44.04L187.245,44.04C184.715,46.966 180.755,52.356 178.731,57.262L180.271,57.262C182.251,52.752 185.683,47.538 188.785,44.04L189.027,42.786L179.853,42.786Z" style="fill-rule:nonzero;"/>
        <path d="M195.627,42.566C190.985,42.566 189.313,49.012 189.313,52.708C189.313,55.678 190.523,57.482 193.053,57.482C197.849,57.482 199.323,50.904 199.323,47.098C199.323,44.7 198.399,42.566 195.627,42.566ZM195.429,43.82C197.299,43.82 197.871,45.184 197.871,47.164C197.871,50.266 196.595,56.228 193.251,56.228C191.491,56.228 190.765,54.864 190.765,52.686C190.765,49.628 192.107,43.82 195.429,43.82Z" style="fill-rule:nonzero;"/>
        <path d="M207.485,42.566C202.843,42.566 201.171,49.012 201.171,52.708C201.171,55.678 202.381,57.482 204.911,57.482C209.707,57.482 211.181,50.904 211.181,47.098C211.181,44.7 210.257,42.566 207.485,42.566ZM207.287,43.82C209.157,43.82 209.729,45.184 209.729,47.164C209.729,50.266 208.453,56.228 205.109,56.228C203.349,56.228 202.623,54.864 202.623,52.686C202.623,49.628 203.965,43.82 207.287,43.82Z" style="fill-rule:nonzero;"/>
    </g>
    <g transform="matrix(1,0,0,1,787.742,-8.09715)">
        <path d="M174.023,57.262L177.103,42.786L176.025,42.786C175.255,43.512 173.781,44.238 172.307,44.502L172.021,45.734C172.813,45.646 174.573,45.162 175.299,44.722L172.615,57.262L174.023,57.262Z" style="fill-rule:nonzero;"/>
        <path d="M182.537,57.482C185.771,57.482 187.707,55.348 187.707,52.73C187.707,51.102 186.871,50.024 185.727,49.518C186.959,49.166 188.279,47.956 188.279,45.932C188.279,43.93 186.827,42.566 184.451,42.566C181.591,42.566 179.941,44.392 179.941,46.636C179.941,48 180.799,48.99 181.701,49.364C179.699,49.892 178.203,51.476 178.203,53.61C178.203,55.612 179.633,57.482 182.537,57.482ZM184.297,43.798C186.211,43.798 186.849,44.876 186.849,46.086C186.849,47.692 185.881,48.88 183.901,48.88C182.119,48.88 181.349,47.824 181.349,46.636C181.349,44.942 182.427,43.798 184.297,43.798ZM182.691,56.25C180.645,56.25 179.655,54.996 179.655,53.5C179.655,51.674 181.085,50.134 183.329,50.134C185.419,50.134 186.255,51.278 186.255,52.774C186.255,54.798 184.891,56.25 182.691,56.25Z" style="fill-rule:nonzero;"/>
        <path d="M196.639,42.566C191.997,42.566 190.325,49.012 190.325,52.708C190.325,55.678 191.535,57.482 194.065,57.482C198.861,57.482 200.335,50.904 200.335,47.098C200.335,44.7 199.411,42.566 196.639,42.566ZM196.441,43.82C198.311,43.82 198.883,45.184 198.883,47.164C198.883,50.266 197.607,56.228 194.263,56.228C192.503,56.228 191.777,54.864 191.777,52.686C191.777,49.628 193.119,43.82 196.441,43.82Z" style="fill-rule:nonzero;"/>
        <path d="M208.497,42.566C203.855,42.566 202.183,49.012 202.183,52.708C202.183,55.678 203.393,57.482 205.923,57.482C210.719,57.482 212.193,50.904 212.193,47.098C212.193,44.7 211.269,42.566 208.497,42.566ZM208.299,43.82C210.169,43.82 210.741,45.184 210.741,47.164C210.741,50.266 209.465,56.228 206.121,56.228C204.361,56.228 203.635,54.864 203.635,52.686C203.635,49.628 204.977,43.82 208.299,43.82Z" style="fill-rule:nonzero;"/>
    </g>
    <g transform="matrix(1,0,0,1,960.03,-8.09715)">
        <path d="M174.023,57.262L177.103,42.786L176.025,42.786C175.255,43.512 173.781,44.238 172.307,44.502L172.021,45.734C172.813,45.646 174.573,45.162 175.299,44.722L172.615,57.262L174.023,57.262Z" style="fill-rule:nonzero;"/>
        <path d="M178.599,53.984C178.709,55.656 179.501,57.482 182.383,57.482C187.707,57.482 188.675,50.464 188.675,47.494C188.675,44.546 187.355,42.566 184.583,42.566C181.305,42.566 179.567,45.272 179.567,47.736C179.567,50.442 181.283,51.828 183.439,51.828C185.067,51.828 186.387,51.146 187.091,49.98C186.563,52.862 185.419,56.25 182.537,56.25C180.887,56.25 180.183,55.458 179.985,53.984L178.599,53.984ZM184.429,43.82C186.563,43.82 187.245,45.382 187.245,47.12C187.245,49.188 185.705,50.618 183.703,50.618C182.097,50.618 180.997,49.562 180.997,47.67C180.997,45.8 182.141,43.82 184.429,43.82Z" style="fill-rule:nonzero;"/>
        <path d="M196.837,42.566C192.195,42.566 190.523,49.012 190.523,52.708C190.523,55.678 191.733,57.482 194.263,57.482C199.059,57.482 200.533,50.904 200.533,47.098C200.533,44.7 199.609,42.566 196.837,42.566ZM196.639,43.82C198.509,43.82 199.081,45.184 199.081,47.164C199.081,50.266 197.805,56.228 194.461,56.228C192.701,56.228 191.975,54.864 191.975,52.686C191.975,49.628 193.317,43.82 196.639,43.82Z" style="fill-rule:nonzero;"/>
        <path d="M208.695,42.566C204.053,42.566 202.381,49.012 202.381,52.708C202.381,55.678 203.591,57.482 206.121,57.482C210.917,57.482 212.391,50.904 212.391,47.098C212.391,44.7 211.467,42.566 208.695,42.566ZM208.497,43.82C210.367,43.82 210.939,45.184 210.939,47.164C210.939,50.266 209.663,56.228 206.319,56.228C204.559,56.228 203.833,54.864 203.833,52.686C203.833,49.628 205.175,43.82 208.497,43.82Z" style="fill-rule:nonzero;"/>
    </g>
    <g id="Ebene-1" serif:id="Ebene 1">
        <g transform="matrix(1,0,0,1,266.4,63.4638)">
            <path d="M0,0L907.2,0" style="fill-rule:nonzero;stroke:black;stroke-width:1px;"/>
        </g>
    </g>
</svg>
